<?xml version="1.0" standalone="no"?><!DOCTYPE svg PUBLIC "-//W3C//DTD SVG 1.1//EN" "http://www.w3.org/Graphics/SVG/1.1/DTD/svg11.dtd"><svg t="1544621236551" class="icon" style="" viewBox="0 0 1024 1024" version="1.1" xmlns="http://www.w3.org/2000/svg" p-id="5880" xmlns:xlink="http://www.w3.org/1999/xlink" width="200" height="200"><defs><style type="text/css"></style></defs><path d="M880.672152 899.013381l-38.806841 0 0 0L182.136735 899.013381c-0.001023 0-0.001023 0-0.001023 0l-38.805818 0c-42.866297 0-77.616752-34.654264-77.616752-77.402881l0-522.469446c0-42.74964 34.750455-77.402881 77.616752-77.402881l38.805818 0 0.001023 0 0 0 126.126582 0 48.50676-77.401858c0-10.689457 28.092825-19.351744 38.808888-19.351744l232.845139 0c10.714016 0 38.806841 8.662287 38.806841 19.351744l48.510854 77.401858 126.123512 0 38.806841 0c42.866297 0 77.613682 34.653241 77.613682 77.402881l0 522.469446C958.285834 864.359117 923.538449 899.013381 880.672152 899.013381zM512.001535 299.141054c-139.312906 0-252.249071 112.627127-252.249071 251.560386 0 138.934283 112.936165 251.558339 252.249071 251.558339 139.308813 0 252.241908-112.620987 252.247025-251.54606l0-0.022513C764.243443 411.762041 651.310348 299.141054 512.001535 299.141054zM512.001535 724.857922c-96.447633 0-174.633343-77.968769-174.633343-174.155459 0-96.18362 78.18571-174.157505 174.633343-174.157505s174.632319 77.973886 174.632319 174.157505C686.633854 646.889153 608.449167 724.857922 512.001535 724.857922z" p-id="5881" fill="#ffffff"></path></svg>