<?xml version="1.0" standalone="no"?><!DOCTYPE svg PUBLIC "-//W3C//DTD SVG 1.1//EN" "http://www.w3.org/Graphics/SVG/1.1/DTD/svg11.dtd"><svg t="1544542247759" class="icon" style="" viewBox="0 0 1024 1024" version="1.1" xmlns="http://www.w3.org/2000/svg" p-id="9429" xmlns:xlink="http://www.w3.org/1999/xlink" width="200" height="200"><defs><style type="text/css"></style></defs><path d="M541.112 685.984c13.608-9.16 22.528-24.552 22.528-41.984 0-28.072-23.136-50.84-51.68-50.84s-51.68 22.76-51.68 50.84c0 18.824 10.408 35.264 25.872 44.048L471.2 822.976l42.536-1.464 42.528 1.464-15.152-136.992zM503.184 115.16h20.608c117.672 0 213.112 95.408 213.112 213.096v144.048c48.048 2.688 79.032 5.144 79.032 5.144v404.688s-156.016 10.712-305.8 10.712C355.952 892.848 208 882.136 208 882.136V477.44s32.352-2.592 82.072-5.376V328.248c0-117.704 95.416-213.088 213.112-213.088z m-162.96 228.36v126.016c50.328-2.288 109.976-4.176 169.592-4.176 62.464 0 124.904 2.016 176.936 4.392V343.52c0-97.744-76.76-177.568-173.256-182.448-96.52 4.88-173.272 84.672-173.272 182.448z" p-id="9430" fill="#ffffff"></path></svg>