<?xml version="1.0" standalone="no"?><!DOCTYPE svg PUBLIC "-//W3C//DTD SVG 1.1//EN" "http://www.w3.org/Graphics/SVG/1.1/DTD/svg11.dtd"><svg t="1544533794023" class="icon" style="" viewBox="0 0 1024 1024" version="1.1" xmlns="http://www.w3.org/2000/svg" p-id="10191" xmlns:xlink="http://www.w3.org/1999/xlink" width="200" height="200"><defs><style type="text/css"></style></defs><path d="M512 64C264.6 64 64 264.6 64 512s200.6 448 448 448 448-200.6 448-448S759.4 64 512 64z m0 651.4c-17.7 0-32-14.3-32-32s14.4-32 32-32c17.7 0 32 14.3 32 32s-14.3 32-32 32z m50.2-185.6c-14.8 5.6-24.7 20-24.7 35.8v18.2c0 3.5-2.9 6.4-6.4 6.4h-38.4c-3.5 0-6.4-2.9-6.4-6.4v-17.2c0-18.5 5.4-36.7 15.9-51.9 10.3-14.9 24.7-26.2 41.7-32.7 27.3-10.5 44.9-33.3 44.9-58.2 0-35.3-34.5-64-76.8-64s-76.8 28.7-76.8 64v6.1c0 3.5-2.9 6.4-6.4 6.4h-38.4c-3.5 0-6.4-2.9-6.4-6.4v-6.1c0-31.4 13.7-60.8 38.7-82.6 24-21 55.7-32.6 89.3-32.6s65.3 11.6 89.3 32.6c25 21.8 38.7 51.2 38.6 82.6 0 46.2-30.5 87.8-77.7 106z" fill="#bfbfbf" p-id="10192"></path></svg>