<?xml version="1.0" standalone="no"?><!DOCTYPE svg PUBLIC "-//W3C//DTD SVG 1.1//EN" "http://www.w3.org/Graphics/SVG/1.1/DTD/svg11.dtd"><svg t="1544336507442" class="icon" style="" viewBox="0 0 1024 1024" version="1.1" xmlns="http://www.w3.org/2000/svg" p-id="3332" xmlns:xlink="http://www.w3.org/1999/xlink" width="200" height="200"><defs><style type="text/css"></style></defs><path d="M504.365363 16.42323c-277.792247 0-503.788385 226.000165-503.788385 503.788385s225.996137 503.788385 503.788385 503.788385S1008.153748 797.999835 1008.153748 520.211615 782.15761 16.42323 504.365363 16.42323zM504.365363 992.512911c-260.426519 0-472.301296-211.874777-472.301296-472.301296S243.937837 47.910319 504.365363 47.910319 976.666659 259.78409 976.666659 520.211615 764.791882 992.512911 504.365363 992.512911z" p-id="3333"></path><path d="M510.460385 207.353606c-1.952461-0.027187-5.920821-0.042292-7.903491-0.042292-1.975621 0-6.467591 0.015104-8.427101 0.042292-122.42607 1.775239-222.172777 101.321565-222.172777 221.905937l0 270.49695c0 47.351466 46.88928 82.710248 89.889748 84.477432l-53.558259 40.224328c-6.948909 5.219989-8.355608 15.090039-3.136626 22.042976 3.098362 4.116381 7.817901 6.288355 12.606919 6.288355 3.289681 0 6.603528-1.026074 9.440085-3.155757l23.964222-17.998088 303.577021 0 23.964222 17.998088c2.836557 2.129683 6.149397 3.155757 9.440085 3.155757 4.789018 0 9.508557-2.171975 12.606919-6.288355 5.219989-6.952937 3.813291-16.822987-3.136626-22.042976l-53.486766-40.169953c45.975983-0.4642 83.973961-38.795477 83.973961-84.531807L728.101921 427.67663C728.100915 307.933054 630.641981 209.098637 510.460385 207.353606zM392.724652 800.421531l21.451901-16.111078 177.548111 0 21.451901 16.111078L392.724652 800.421531zM643.28817 753.095239 365.20391 753.095239c-19.184267 0-38.352422-10.093591-50.196078-24.166617l372.644207 0C677.868586 743.27755 661.362786 753.095239 643.28817 753.095239zM696.8857 697.713407l-393.714477 0L303.171223 429.26055c0-103.473401 85.960658-188.893331 191.27475-190.419856 1.844718-0.027187 6.313529-0.042292 8.181407-0.042292 1.875934 0 5.712384 0.015104 7.550054 0.042292 103.069617 1.495309 186.708266 86.204339 186.708266 188.835935L696.8857 697.713407z" p-id="3334"></path><path d="M358.185521 367.436301c-8.694948 0-15.743544 7.048597-15.743544 15.743544l0 78.269632c0 8.694948 7.048597 15.743544 15.743544 15.743544l275.630342 0c8.694948 0 15.743544-7.048597 15.743544-15.743544l0-78.269632c0-8.694948-7.048597-15.743544-15.743544-15.743544L358.185521 367.436301zM374.664134 398.651515l109.756721 0 0 47.326293-109.756721 0L374.664134 398.651515zM618.344193 445.977808l-102.708124 0 0-47.326293 102.708124 0L618.344193 445.977808z" p-id="3335"></path><path d="M503.496371 536.746616c-34.246111 0-62.112235 27.862096-62.112235 62.109214 0 34.246111 27.866124 62.108207 62.112235 62.108207s62.105186-27.862096 62.105186-62.108207C565.601558 564.608712 537.743489 536.746616 503.496371 536.746616zM503.496371 629.476948c-16.888438 0-30.626153-13.736708-30.626153-30.622125 0-16.885417 13.736708-30.622125 30.626153-30.622125 16.881389 0 30.618097 13.736708 30.618097 30.622125C534.114469 615.74024 520.377761 629.476948 503.496371 629.476948z" p-id="3336"></path><path d="M453.291231 320.110008l94.460259 0c8.693941 0 15.743544-6.913666 15.743544-15.607607s-7.049604-15.607607-15.743544-15.607607l-94.460259 0c-8.693941 0-15.743544 6.913666-15.743544 15.607607S444.59729 320.110008 453.291231 320.110008z" p-id="3337"></path></svg>