<?xml version="1.0" standalone="no"?>
<!DOCTYPE svg PUBLIC "-//W3C//DTD SVG 20010904//EN"
 "http://www.w3.org/TR/2001/REC-SVG-20010904/DTD/svg10.dtd">
<svg version="1.0" xmlns="http://www.w3.org/2000/svg"
 width="73.000000pt" height="73.000000pt" viewBox="0 0 73.000000 73.000000"
 preserveAspectRatio="xMidYMid meet">

<g transform="translate(0.000000,73.000000) scale(0.100000,-0.100000)"
fill="#000000" stroke="none">
<path d="M0 365 l0 -365 365 0 365 0 0 365 0 365 -365 0 -365 0 0 -365z m315
211 c28 -12 42 -27 71 -74 1 -2 18 7 38 18 45 27 86 20 120 -21 32 -37 41 -87
26 -133 -12 -36 -52 -76 -76 -76 -10 0 -14 -14 -14 -50 0 -27 -4 -50 -9 -50
-6 0 -9 10 -9 23 3 50 -3 77 -16 77 -8 0 -27 13 -42 29 l-28 30 -35 -30 c-20
-16 -42 -35 -49 -40 -9 -8 -11 -23 -7 -48 3 -20 2 -48 -4 -61 -8 -21 -10 -14
-10 38 -1 34 -2 65 -3 69 -2 4 -21 17 -42 28 -98 50 -102 199 -7 262 40 27 50
28 96 9z"/>
<path d="M209 513 c-13 -16 -12 -17 4 -4 9 7 17 15 17 17 0 8 -8 3 -21 -13z"/>
<path d="M508 338 c-10 -10 -14 -18 -9 -18 10 0 36 29 30 34 -2 1 -12 -6 -21
-16z"/>
</g>
</svg>
